# xmcd
#
# Track frame offsets: 
#        150
#        12262
#        23632
#        37538
#        56768
#        96390
#        109784
#        143714
#        157206
#        173098
#        190250
#        204072
#        219852
#        243740
#        261357
#        279131
#
# Disc length: 3891 seconds
#
# Revision: 0
# Processed by: cddbd v1.5.2PL0 Copyright (c) Steve Scherf et al.
# Submitted via: ExactAudioCopy v0.99pb4
#
DISCID=d40f3110
DTITLE=Geater Davis - I'll Play The Blues For You
DYEAR=2008
DGENRE=Soul
TTITLE0=Sweet Woman's Love
TTITLE1=Don't Marry A Fool
TTITLE2=My Love Is So Strong For You
TTITLE3=I Can Hold My Own
TTITLE4=For Your Precious Love (Album Version)
TTITLE5=Wrapped Up In You
TTITLE6=Cry Cry Cry
TTITLE7=I Love You
TTITLE8=St James Infirmary
TTITLE9=I Know (My Baby Loves Me)
TTITLE10=Best Of Luck To You
TTITLE11=I'll Play The Blues For You
TTITLE12=Cold Love (Long Version)
TTITLE13=I'll Play The Blues For You (Second Version)
TTITLE14=Breath Taking Girl
TTITLE15=I'll Get By
EXTD=
EXTT0=
EXTT1=
EXTT2=
EXTT3=
EXTT4=
EXTT5=
EXTT6=
EXTT7=
EXTT8=
EXTT9=
EXTT10=
EXTT11=
EXTT12=
EXTT13=
EXTT14=
EXTT15=
PLAYORDER=
